{"scenes": [{"nodes": [0]}], "nodes": [{"mesh": 0}], "meshes": [{"primitives": [{"attributes": {"POSITION": 1}, "indices": 0}]}], "buffers": [{"uri": "oculos3.bin", "byteLength": 2397864}], "bufferViews": [{"buffer": 0, "byteOffset": 0, "byteLength": 1601280, "target": 34963}, {"buffer": 0, "byteOffset": 1601280, "byteLength": 796584, "target": 34962}], "accessors": [{"bufferView": 0, "byteOffset": 0, "componentType": 5125, "count": 400320, "type": "SCALAR", "max": [66381], "min": [0]}, {"bufferView": 1, "byteOffset": 0, "componentType": 5126, "count": 66382, "type": "VEC3", "min": [0.0, 0.0, 0.0], "max": [141.59982, 134.89648, 50.04555]}], "asset": {"version": "2.0"}}