{"scenes": [{"nodes": [0]}], "nodes": [{"mesh": 0}], "meshes": [{"primitives": [{"attributes": {"POSITION": 1}, "indices": 0}]}], "buffers": [{"uri": "oculos1.bin", "byteLength": 292128}], "bufferViews": [{"buffer": 0, "byteOffset": 0, "byteLength": 194832, "target": 34963}, {"buffer": 0, "byteOffset": 194832, "byteLength": 97296, "target": 34962}], "accessors": [{"bufferView": 0, "byteOffset": 0, "componentType": 5125, "count": 48708, "type": "SCALAR", "max": [8107], "min": [0]}, {"bufferView": 1, "byteOffset": 0, "componentType": 5126, "count": 8108, "type": "VEC3", "min": [0.0, 0.0, 0.0], "max": [225.38049, 42.13571, 134.24127]}], "asset": {"version": "2.0"}}