{"scenes": [{"nodes": [0]}], "nodes": [{"mesh": 0}], "meshes": [{"primitives": [{"attributes": {"POSITION": 1}, "indices": 0}]}], "buffers": [{"uri": "oculos2.bin", "byteLength": 71796}], "bufferViews": [{"buffer": 0, "byteOffset": 0, "byteLength": 47856, "target": 34963}, {"buffer": 0, "byteOffset": 47856, "byteLength": 23940, "target": 34962}], "accessors": [{"bufferView": 0, "byteOffset": 0, "componentType": 5125, "count": 11964, "type": "SCALAR", "max": [1994], "min": [0]}, {"bufferView": 1, "byteOffset": 0, "componentType": 5126, "count": 1995, "type": "VEC3", "min": [0.0, 0.0, 0.0], "max": [2.20599, 5.54793, 5.42355]}], "asset": {"version": "2.0"}}